<svg width="20" height="20" viewBox="0 0 20 20" fill="none" xmlns="http://www.w3.org/2000/svg">
<g clip-path="url(#clip0_127_686)">
<path d="M18.3649 6.17789C18.5813 5.52866 18.6896 4.85564 18.6896 4.15858C18.6896 3.22906 18.4851 2.35562 18.0765 1.53833C17.2193 1.53833 16.4621 1.69472 15.8049 2.00713C15.148 2.31962 14.3988 2.80438 13.5577 3.4614C12.5001 3.20502 11.378 3.07684 10.1924 3.07684C8.89422 3.07684 7.6562 3.21715 6.47839 3.49756C5.62111 2.82442 4.8639 2.32977 4.20683 2.01319C3.54977 1.69662 2.7886 1.53837 1.92315 1.53837C1.51451 2.35566 1.31021 3.22915 1.31021 4.15862C1.31021 4.86381 1.41832 5.54491 1.6347 6.20184C0.54483 7.47597 0 9.06243 0 10.9615C0 12.6284 0.248293 13.9543 0.745173 14.94C1.00967 15.4607 1.35412 15.9214 1.77884 16.3222C2.2034 16.7227 2.6882 17.0475 3.23311 17.2959C3.77811 17.5441 4.32686 17.7506 4.87981 17.9147C5.43272 18.0789 6.04365 18.1992 6.71275 18.275C7.38181 18.3515 7.97274 18.4015 8.48553 18.4257C8.99832 18.4494 9.56715 18.4616 10.1923 18.4616C10.9294 18.4616 11.5982 18.4434 12.1995 18.4076C12.8005 18.3716 13.4874 18.2833 14.2608 18.1434C15.034 18.0031 15.7151 17.8126 16.3042 17.5723C16.8931 17.332 17.4582 16.9874 17.999 16.5388C18.5398 16.0899 18.9624 15.5572 19.267 14.9401C19.7555 13.9465 20 12.6202 20 10.9615C19.9997 9.05443 19.4549 7.45994 18.3649 6.17789ZM16.9231 14.9217C16.6667 15.4467 16.3421 15.859 15.9495 16.1598C15.5568 16.4604 15.0681 16.7007 14.4832 16.8812C13.898 17.0614 13.3374 17.1795 12.8005 17.2354C12.2634 17.2916 11.6667 17.3195 11.0095 17.3195H8.9902C8.33318 17.3195 7.73611 17.2916 7.19932 17.2354C6.66249 17.1795 6.10162 17.0614 5.51662 16.8812C4.93184 16.7007 4.44313 16.4604 4.0504 16.1598C3.65767 15.859 3.33318 15.4467 3.07676 14.9217C2.82039 14.3967 2.69216 13.7819 2.69216 13.0768C2.69216 12.115 2.96861 11.2976 3.52157 10.6248C4.07448 9.95171 4.82361 9.61526 5.76904 9.61526C6.11374 9.61526 6.89499 9.69933 8.11292 9.86764C8.68179 9.95575 9.31086 9.99982 9.99987 9.99982C10.6891 9.99982 11.3181 9.95587 11.8869 9.86764C13.121 9.69929 13.902 9.61526 14.2308 9.61526C15.1762 9.61526 15.9253 9.95187 16.4782 10.6248C17.0312 11.2979 17.3075 12.115 17.3075 13.0768C17.3075 13.782 17.1792 14.3972 16.9231 14.9217Z" fill="white"/>
<path d="M7.02517 11.1779C6.78075 10.9053 6.4904 10.769 6.15378 10.769C5.81708 10.769 5.52669 10.9055 5.28232 11.1779C5.03806 11.4502 4.86567 11.7548 4.76557 12.091C4.66525 12.4278 4.61523 12.7563 4.61523 13.077C4.61523 13.3973 4.66537 13.7258 4.76557 14.0627C4.86555 14.3991 5.03785 14.7035 5.28232 14.9757C5.52682 15.2483 5.81708 15.3846 6.15378 15.3846C6.4904 15.3846 6.78087 15.248 7.02517 14.9757C7.2695 14.7034 7.44181 14.3991 7.54192 14.0627C7.64211 13.7258 7.69225 13.3973 7.69225 13.077C7.69225 12.7566 7.64224 12.4278 7.54192 12.091C7.44177 11.7549 7.26963 11.4504 7.02517 11.1779ZM14.7175 11.1779C14.4732 10.9053 14.1828 10.769 13.8462 10.769C13.5098 10.769 13.2192 10.9055 12.9748 11.1779C12.7304 11.4502 12.5582 11.7548 12.4582 12.091C12.3578 12.4278 12.3076 12.7563 12.3076 13.077C12.3076 13.3973 12.3578 13.7258 12.4582 14.0627C12.5582 14.3991 12.7305 14.7035 12.9748 14.9757C13.2193 15.2483 13.5098 15.3846 13.8462 15.3846C14.1828 15.3846 14.4732 15.248 14.7175 14.9757C14.9617 14.7034 15.1341 14.3991 15.2344 14.0627C15.3346 13.7258 15.3847 13.3973 15.3847 13.077C15.3847 12.7566 15.3346 12.4278 15.2344 12.091C15.1342 11.7549 14.9617 11.4504 14.7175 11.1779Z" fill="white"/>
</g>
<defs>
<clipPath id="clip0_127_686">
<rect width="20" height="20" fill="white"/>
</clipPath>
</defs>
</svg>
